<mxfile host="app.diagrams.net" modified="2023-07-02T15:57:19.233Z" agent="Mozilla/5.0 (Macintosh; Intel Mac OS X 10_15_7) AppleWebKit/537.36 (KHTML, like Gecko) Chrome/114.0.0.0 Safari/537.36" etag="3JSEPxJg0E2p4mXpMq5v" version="21.3.7" type="github">
  <diagram name="Page-1" id="e3a06f82-3646-2815-327d-82caf3d4e204">
    <mxGraphModel dx="2757.5" dy="648" grid="1" gridSize="10" guides="1" tooltips="1" connect="1" arrows="1" fold="1" page="1" pageScale="1.5" pageWidth="1169" pageHeight="826" background="none" math="0" shadow="0">
      <root>
        <mxCell id="0" style=";html=1;" />
        <mxCell id="1" style=";html=1;" parent="0" />
        <mxCell id="6a7d8f32e03d9370-58" value="&lt;font style=&quot;font-size: 40px;&quot;&gt;VPC&lt;/font&gt;" style="whiteSpace=wrap;html=1;fontSize=14;verticalAlign=top;fillColor=#f5f5f5;fontColor=#333333;strokeColor=#666666;" parent="1" vertex="1">
          <mxGeometry x="250" y="351" width="956.5" height="530" as="geometry" />
        </mxCell>
        <mxCell id="6a7d8f32e03d9370-57" value="&lt;font style=&quot;font-size: 20px;&quot;&gt;Public&amp;nbsp;Networks&lt;/font&gt;" style="whiteSpace=wrap;html=1;fillColor=#FFD470;gradientColor=none;fontSize=14;strokeColor=none;verticalAlign=top;" parent="1" vertex="1">
          <mxGeometry x="320" y="350" width="290" height="472" as="geometry" />
        </mxCell>
        <mxCell id="6a7d8f32e03d9370-36" style="edgeStyle=none;rounded=0;html=1;startSize=10;endSize=10;jettySize=auto;orthogonalLoop=1;fontSize=14;endArrow=none;endFill=0;strokeWidth=2;" parent="1" source="6a7d8f32e03d9370-1" edge="1">
          <mxGeometry relative="1" as="geometry">
            <mxPoint x="637" y="1014.1923076923076" as="targetPoint" />
          </mxGeometry>
        </mxCell>
        <mxCell id="6a7d8f32e03d9370-1" value="Client" style="verticalLabelPosition=bottom;aspect=fixed;html=1;verticalAlign=top;strokeColor=none;shape=mxgraph.citrix.laptop_2;fillColor=#66B2FF;gradientColor=#0066CC;fontSize=14;" parent="1" vertex="1">
          <mxGeometry x="350.4999999999999" y="927" width="116" height="86.5" as="geometry" />
        </mxCell>
        <mxCell id="6a7d8f32e03d9370-2" value="Client" style="verticalLabelPosition=bottom;aspect=fixed;html=1;verticalAlign=top;strokeColor=none;shape=mxgraph.citrix.laptop_2;fillColor=#66B2FF;gradientColor=#0066CC;fontSize=14;" parent="1" vertex="1">
          <mxGeometry x="939.9999999999999" y="924" width="116" height="86.5" as="geometry" />
        </mxCell>
        <mxCell id="6a7d8f32e03d9370-5" value="Bastion Host&lt;br&gt;(a special EC2 securely administer &lt;br&gt;and access to instances from Internet )" style="verticalLabelPosition=bottom;aspect=fixed;html=1;verticalAlign=top;strokeColor=none;shape=mxgraph.citrix.desktop;fillColor=#66B2FF;gradientColor=#0066CC;fontSize=14;" parent="1" vertex="1">
          <mxGeometry x="423.50000000000006" y="580" width="89" height="98" as="geometry" />
        </mxCell>
        <mxCell id="6a7d8f32e03d9370-37" style="edgeStyle=none;rounded=0;html=1;startSize=10;endSize=10;jettySize=auto;orthogonalLoop=1;fontSize=14;endArrow=none;endFill=0;strokeWidth=2;" parent="1" source="6a7d8f32e03d9370-6" edge="1">
          <mxGeometry relative="1" as="geometry">
            <mxPoint x="637" y="1032.0515947467165" as="targetPoint" />
          </mxGeometry>
        </mxCell>
        <mxCell id="6a7d8f32e03d9370-6" value="Client" style="verticalLabelPosition=bottom;aspect=fixed;html=1;verticalAlign=top;strokeColor=none;shape=mxgraph.citrix.pda;fillColor=#66B2FF;gradientColor=#0066CC;fontSize=14;" parent="1" vertex="1">
          <mxGeometry x="393.50000000000006" y="1065" width="30" height="61" as="geometry" />
        </mxCell>
        <mxCell id="6a7d8f32e03d9370-23" value="" style="verticalLabelPosition=bottom;aspect=fixed;html=1;verticalAlign=top;strokeColor=none;shape=mxgraph.citrix.home_office;fillColor=#66B2FF;gradientColor=#0066CC;fontSize=14;" parent="1" vertex="1">
          <mxGeometry x="207" y="955" width="80" height="55.5" as="geometry" />
        </mxCell>
        <mxCell id="6a7d8f32e03d9370-62" value="Public &amp;amp; Private Subnet&lt;br&gt;Web Architecture" style="text;strokeColor=none;fillColor=none;html=1;fontSize=24;fontStyle=1;verticalAlign=middle;align=center;" parent="1" vertex="1">
          <mxGeometry x="140" y="30" width="861" height="40" as="geometry" />
        </mxCell>
        <mxCell id="ronUoNS-gpGE2-iIif4v-1" value="" style="verticalLabelPosition=bottom;aspect=fixed;html=1;verticalAlign=top;strokeColor=none;shape=mxgraph.citrix.xenapp_server;fillColor=#66B2FF;gradientColor=#0066CC;fontSize=14;" parent="1" vertex="1">
          <mxGeometry x="-110.00000000000011" y="623.5" width="76" height="89" as="geometry" />
        </mxCell>
        <mxCell id="ronUoNS-gpGE2-iIif4v-2" value="Security Group&lt;br&gt;(can apply to all EC2&lt;br&gt;control all inbound &lt;br&gt;and outbound traffic )" style="verticalLabelPosition=bottom;aspect=fixed;html=1;verticalAlign=top;strokeColor=none;shape=mxgraph.citrix.firewall;fillColor=#66B2FF;gradientColor=#0066CC;fontSize=14;" parent="1" vertex="1">
          <mxGeometry x="660" y="420" width="77" height="95.48" as="geometry" />
        </mxCell>
        <mxCell id="ronUoNS-gpGE2-iIif4v-3" value="DNS" style="verticalLabelPosition=bottom;aspect=fixed;html=1;verticalAlign=top;strokeColor=none;shape=mxgraph.citrix.chassis;fillColor=#66B2FF;gradientColor=#0066CC;fontSize=14;" parent="1" vertex="1">
          <mxGeometry x="-40" y="851.25" width="137.5" height="177.5" as="geometry" />
        </mxCell>
        <mxCell id="ronUoNS-gpGE2-iIif4v-4" value="Web service" style="verticalLabelPosition=bottom;aspect=fixed;html=1;verticalAlign=top;strokeColor=none;shape=mxgraph.citrix.web_service;fillColor=#66B2FF;gradientColor=#0066CC;fontSize=14;" parent="1" vertex="1">
          <mxGeometry x="-50" y="249" width="63" height="60" as="geometry" />
        </mxCell>
        <mxCell id="ronUoNS-gpGE2-iIif4v-8" value="Private Networks" style="whiteSpace=wrap;html=1;fillColor=#dae8fc;fontSize=20;strokeColor=none;verticalAlign=top;" parent="1" vertex="1">
          <mxGeometry x="830" y="410" width="310" height="420" as="geometry" />
        </mxCell>
        <mxCell id="ronUoNS-gpGE2-iIif4v-9" value="App/Web Server" style="verticalLabelPosition=bottom;aspect=fixed;html=1;verticalAlign=top;strokeColor=none;shape=mxgraph.citrix.desktop;fillColor=#66B2FF;gradientColor=#0066CC;fontSize=14;" parent="1" vertex="1">
          <mxGeometry x="953.5" y="590" width="89" height="98" as="geometry" />
        </mxCell>
        <mxCell id="ronUoNS-gpGE2-iIif4v-10" style="edgeStyle=none;rounded=0;html=1;startSize=10;endSize=10;jettySize=auto;orthogonalLoop=1;fontSize=14;endArrow=none;endFill=0;strokeWidth=2;exitX=0.738;exitY=0.738;exitDx=0;exitDy=0;exitPerimeter=0;entryX=0.408;entryY=0.664;entryDx=0;entryDy=0;entryPerimeter=0;" parent="1" source="6a7d8f32e03d9370-5" target="ronUoNS-gpGE2-iIif4v-9" edge="1">
          <mxGeometry relative="1" as="geometry">
            <mxPoint x="530" y="522.81" as="sourcePoint" />
            <mxPoint x="700" y="556.0023076923076" as="targetPoint" />
          </mxGeometry>
        </mxCell>
        <mxCell id="ronUoNS-gpGE2-iIif4v-11" value="SSH/RDP" style="edgeLabel;html=1;align=center;verticalAlign=middle;resizable=0;points=[];" parent="ronUoNS-gpGE2-iIif4v-10" vertex="1" connectable="0">
          <mxGeometry x="0.1243" y="-3" relative="1" as="geometry">
            <mxPoint as="offset" />
          </mxGeometry>
        </mxCell>
        <mxCell id="ronUoNS-gpGE2-iIif4v-12" value="Internet&lt;br style=&quot;font-size: 40px;&quot;&gt;" style="verticalLabelPosition=bottom;aspect=fixed;html=1;verticalAlign=top;strokeColor=none;shape=mxgraph.citrix.web_service;fillColor=#66B2FF;gradientColor=#0066CC;fontSize=40;" parent="1" vertex="1">
          <mxGeometry x="675.75" y="90" width="105" height="100" as="geometry" />
        </mxCell>
        <mxCell id="ronUoNS-gpGE2-iIif4v-13" value="Internet Gateway" style="whiteSpace=wrap;html=1;fillColor=#f8cecc;fontSize=20;strokeColor=#b85450;verticalAlign=top;" parent="1" vertex="1">
          <mxGeometry x="320" y="310" width="290" height="40" as="geometry" />
        </mxCell>
        <mxCell id="bdCWkZiefh76_0TccD_N-2" value="" style="endArrow=none;html=1;rounded=0;entryX=0.5;entryY=0;entryDx=0;entryDy=0;" edge="1" parent="1" source="ronUoNS-gpGE2-iIif4v-12" target="ronUoNS-gpGE2-iIif4v-13">
          <mxGeometry width="50" height="50" relative="1" as="geometry">
            <mxPoint x="560" y="450" as="sourcePoint" />
            <mxPoint x="610" y="400" as="targetPoint" />
          </mxGeometry>
        </mxCell>
      </root>
    </mxGraphModel>
  </diagram>
</mxfile>
